<?xml version="1.0" standalone="no"?>
<!DOCTYPE svg PUBLIC "-//W3C//DTD SVG 20010904//EN"
 "http://www.w3.org/TR/2001/REC-SVG-20010904/DTD/svg10.dtd">
<svg version="1.0" xmlns="http://www.w3.org/2000/svg"
 width="260.000000pt" height="260.000000pt" viewBox="0 0 260.000000 260.000000"
 preserveAspectRatio="xMidYMid meet">
<metadata>
Created by potrace 1.14, written by Peter Selinger 2001-2017
</metadata>
<g transform="translate(0.000000,260.000000) scale(0.100000,-0.100000)"
fill="#000000" stroke="none">
<path d="M757 2158 c-6 -4 -14 -5 -18 -2 -4 2 -11 -1 -15 -7 -4 -8 -3 -9 4 -5
7 4 12 2 12 -3 0 -10 -14 -15 -33 -12 -4 1 -3 -8 4 -20 6 -13 7 -19 1 -15 -6
3 -13 2 -17 -4 -3 -5 -3 -10 2 -10 4 0 9 -11 9 -25 1 -14 -2 -25 -8 -25 -5 0
-6 5 -2 12 4 7 3 8 -4 4 -17 -10 -15 -15 11 -26 21 -8 21 -9 2 -9 -12 -1 -27
5 -34 12 -11 10 -13 10 -7 0 4 -7 2 -13 -3 -13 -6 0 -11 5 -11 10 0 6 -16 10
-35 8 -26 -1 -34 -6 -30 -16 4 -12 3 -13 -10 -2 -12 10 -15 10 -15 0 0 -7 -7
-10 -17 -6 -10 4 -14 4 -10 0 4 -4 1 -14 -6 -23 -11 -14 -10 -14 6 -2 15 12
17 12 11 -3 -3 -9 -10 -16 -16 -16 -5 0 -7 -4 -4 -9 4 -5 0 -12 -6 -14 -10 -4
-9 -6 1 -6 11 -1 11 -4 0 -18 -8 -9 -9 -14 -3 -10 12 7 28 -19 20 -32 -3 -4 5
-13 17 -21 19 -11 21 -11 12 1 -5 8 -3 7 6 -3 9 -9 20 -14 24 -10 5 4 5 -2 1
-13 -6 -16 -5 -18 5 -7 7 6 17 12 23 12 5 0 6 -3 3 -7 -4 -3 0 -17 8 -30 9
-13 12 -23 8 -23 -5 0 -1 -5 7 -11 13 -9 13 -10 0 -6 -8 2 -14 9 -13 14 1 5
-5 10 -13 10 -12 0 -12 -3 1 -17 8 -9 12 -20 8 -25 -5 -4 -3 -5 4 -1 6 3 16
-2 22 -11 5 -10 13 -15 17 -11 8 8 34 -9 34 -23 0 -8 -46 -2 -63 8 -6 3 -7 2
-4 -4 4 -5 -22 -9 -65 -8 -48 1 -73 6 -79 16 -5 8 -9 10 -9 4 0 -5 -5 -2 -10
7 -6 10 -19 15 -30 13 -11 -2 -20 2 -20 8 0 8 -3 8 -8 2 -4 -5 -16 -11 -26
-13 -26 -5 -60 -50 -62 -81 -2 -41 17 -71 56 -90 33 -16 38 -16 73 -1 20 9 34
20 30 23 -3 4 0 8 8 8 65 6 89 5 89 -3 0 -6 -9 -8 -20 -5 -12 3 -17 1 -14 -5
3 -5 -1 -17 -9 -26 -18 -22 -29 -52 -18 -52 5 0 7 -8 4 -19 -2 -10 2 -25 11
-33 8 -9 13 -18 10 -20 -5 -6 46 -19 84 -23 13 -1 26 4 29 11 3 8 9 11 14 8 5
-3 12 2 15 10 4 10 18 15 39 14 26 -1 30 -4 21 -14 -6 -6 -14 -10 -18 -7 -4 2
-5 -3 -2 -11 3 -9 1 -16 -6 -16 -6 0 -8 -4 -5 -10 3 -5 2 -10 -3 -10 -5 0 -9
-7 -9 -15 0 -8 4 -15 9 -15 4 0 7 -3 6 -7 -4 -22 23 -63 42 -63 12 0 19 -4 16
-8 -3 -5 1 -9 9 -9 8 0 15 5 15 10 0 6 3 7 7 4 3 -4 13 -1 21 6 13 10 14 9 8
-1 -7 -11 -4 -11 12 -1 12 7 19 16 16 20 -7 13 23 18 36 6 9 -8 11 -8 7 -1 -5
8 6 11 36 9 58 -4 57 -4 57 -16 0 -5 -3 -8 -7 -6 -9 5 -72 -60 -67 -68 2 -3
-1 -1 -8 5 -8 7 -18 4 -32 -8 -11 -9 -17 -12 -13 -7 4 8 -27 11 -94 10 -54 0
-99 3 -99 7 0 5 -6 8 -14 8 -8 0 -16 5 -18 10 -2 6 -13 12 -26 13 -12 0 -22 5
-22 10 0 4 -18 -2 -40 -14 -21 -12 -37 -26 -35 -30 3 -4 1 -9 -5 -11 -13 -4
-20 -68 -7 -68 6 0 7 -3 4 -7 -4 -3 8 -19 25 -35 18 -16 34 -24 36 -18 2 5 8
10 13 10 6 0 7 -5 3 -12 -5 -8 -2 -9 12 -4 10 4 23 8 29 9 14 3 33 21 29 29
-2 3 7 5 21 4 13 -2 22 1 19 5 -3 5 0 9 5 9 6 0 11 -5 11 -11 0 -6 5 -7 13 -2
18 11 36 12 43 2 3 -6 11 -5 20 2 11 9 14 9 14 -1 0 -10 3 -10 15 0 12 10 15
10 15 0 0 -9 4 -9 13 -2 15 13 27 13 50 1 11 -6 17 -6 17 0 0 6 6 8 14 5 19
-7 68 25 59 39 -3 5 -2 7 4 4 9 -6 34 17 64 61 14 20 18 21 30 9 8 -7 21 -16
29 -20 12 -4 11 -6 -2 -6 -10 -1 -18 -5 -18 -11 0 -5 -7 -10 -16 -10 -8 0 -12
-4 -9 -10 3 -5 1 -10 -6 -10 -15 0 -59 -47 -51 -54 3 -3 1 -6 -4 -6 -6 0 -19
-7 -30 -16 -10 -8 -12 -12 -4 -8 8 4 4 -4 -10 -18 -14 -13 -29 -22 -33 -20 -5
2 -11 -5 -14 -17 -3 -11 -9 -19 -13 -16 -5 3 -11 1 -15 -4 -3 -6 -12 -8 -20
-4 -9 3 -15 -1 -15 -8 0 -11 -2 -11 -8 -2 -6 10 -12 10 -28 -3 -10 -8 -13 -12
-5 -8 9 5 12 3 7 -4 -4 -7 -13 -12 -21 -12 -7 0 -16 -7 -19 -16 -4 -10 -2 -13
6 -8 7 5 8 3 2 -7 -4 -8 -9 -20 -10 -28 -3 -18 17 -61 26 -56 4 3 10 -4 13
-14 3 -14 12 -18 36 -15 23 3 30 0 26 -9 -4 -6 1 -3 10 8 9 11 18 19 20 18 13
-8 25 -1 25 13 0 11 6 14 23 10 12 -3 16 -3 10 0 -7 3 -13 12 -13 19 0 7 6 16
13 18 10 4 10 6 0 6 -7 1 -13 6 -13 12 0 5 5 7 12 3 7 -4 8 -3 4 4 -7 12 62
89 76 84 5 -1 7 2 4 7 -4 5 3 12 14 16 11 4 18 10 15 15 -6 10 20 32 28 23 4
-3 7 1 7 11 0 9 7 19 15 22 8 4 15 12 15 20 0 8 4 13 9 11 5 -1 17 7 27 18 16
17 32 20 117 21 84 0 97 -2 97 -17 0 -9 -8 -23 -17 -30 -11 -10 -14 -10 -9 -1
4 7 1 12 -9 12 -9 0 -14 -4 -11 -8 3 -5 -1 -9 -9 -9 -8 0 -11 5 -8 10 4 6 -5
8 -24 4 -17 -3 -35 -1 -42 6 -8 8 -11 8 -11 -2 0 -7 -10 -11 -22 -10 -15 2
-35 -9 -57 -29 -18 -18 -31 -32 -28 -32 4 0 -5 -11 -19 -25 -14 -14 -29 -25
-35 -25 -6 0 -7 -4 -4 -10 3 -5 2 -10 -3 -10 -13 0 -72 -58 -72 -71 0 -5 -4
-8 -9 -4 -5 3 -12 -4 -16 -15 -3 -11 -11 -20 -16 -20 -6 0 -7 -5 -2 -12 17
-27 8 -73 -19 -100 -14 -14 -23 -30 -20 -34 4 -4 -1 -4 -10 -1 -10 3 -17 2
-15 -2 3 -14 -98 -109 -120 -112 -10 -2 -24 0 -32 5 -10 6 -12 5 -7 -3 5 -8 1
-14 -12 -18 -26 -6 -51 -58 -46 -92 3 -14 13 -33 24 -42 10 -9 16 -19 13 -23
-4 -3 0 -6 8 -7 8 0 26 -2 42 -3 15 -1 27 2 27 6 0 4 3 7 8 7 30 -5 60 37 57
79 -1 12 2 22 6 22 4 0 11 9 14 20 4 11 10 18 15 15 5 -3 11 4 15 15 4 11 11
18 16 15 5 -4 9 1 9 10 0 9 4 14 9 11 5 -4 12 0 14 6 3 7 6 3 6 -10 1 -13 -9
-36 -20 -51 -12 -16 -19 -34 -15 -39 3 -6 1 -14 -5 -18 -8 -5 -9 -3 -4 6 5 8
4 11 -3 7 -11 -8 7 -57 21 -57 5 0 5 -4 2 -10 -3 -5 1 -10 10 -10 10 0 13 -5
9 -12 -5 -8 -2 -9 9 -5 10 3 17 3 17 -2 0 -12 43 -8 52 4 5 6 8 5 8 -3 0 -7
14 2 30 20 23 24 29 39 25 56 -4 18 -2 22 7 16 10 -6 11 -5 1 8 -7 8 -10 18
-6 21 3 4 1 7 -5 7 -7 0 -12 6 -12 13 0 7 -5 18 -11 24 -14 14 -19 107 -8 146
4 15 4 25 0 22 -5 -2 -8 6 -8 20 0 14 3 23 6 20 4 -2 6 9 5 26 -1 16 2 27 6
24 5 -3 18 7 29 21 22 28 24 26 24 -28 0 -10 4 -18 8 -18 5 0 9 -5 9 -11 0 -5
-6 -7 -12 -4 -7 4 -4 -1 7 -10 19 -15 21 -14 40 9 20 25 21 25 37 7 14 -17 14
-20 -3 -35 -11 -9 -24 -16 -30 -16 -5 0 -8 -3 -6 -7 3 -5 -5 -17 -16 -28 -11
-11 -16 -13 -12 -5 5 8 4 12 0 7 -11 -10 -18 -43 -19 -89 -1 -21 -5 -38 -9
-38 -4 0 -3 -9 3 -20 7 -12 16 -17 27 -13 11 4 14 3 9 -5 -5 -9 -1 -10 16 -4
13 4 141 7 286 7 145 -1 265 2 268 7 3 5 10 5 16 2 7 -5 9 2 6 20 -3 14 -2 26
1 26 4 0 7 18 8 40 0 22 5 46 10 53 5 6 9 19 8 27 0 8 6 21 15 28 13 12 13 12
0 6 -13 -7 -13 -5 -1 9 7 9 10 17 5 17 -5 0 2 7 14 16 12 8 22 22 22 30 0 8 3
13 8 13 4 -1 9 0 12 1 3 1 28 3 55 5 28 1 50 4 50 5 0 2 31 8 63 12 6 1 12 5
12 10 0 4 3 7 8 7 19 -3 33 2 27 11 -3 5 1 10 9 10 9 0 16 7 16 16 0 8 5 12
10 9 6 -3 11 -1 11 4 2 14 6 30 8 34 6 6 14 78 15 124 1 29 5 53 9 53 4 0 3 9
-3 20 -6 11 -8 20 -5 20 3 0 2 8 -4 17 -7 13 -2 26 17 52 15 20 19 30 9 22
-15 -12 -17 -12 -11 3 3 9 10 16 14 16 5 0 7 9 5 20 -4 19 8 25 40 21 14 -1
48 57 40 69 -3 6 0 10 7 10 9 0 9 3 -2 10 -13 8 -13 10 0 10 11 0 11 3 2 12
-16 16 -15 31 1 22 8 -5 8 -2 -2 9 -10 13 -10 17 -1 17 9 0 9 4 -1 17 -12 15
-12 16 1 8 13 -8 13 -7 1 8 -9 12 -10 17 -2 17 8 0 9 5 1 19 -13 26 -14 52 0
31 5 -8 10 -10 10 -4 0 5 -5 15 -12 22 -9 9 -9 12 0 12 9 0 10 5 2 19 -13 26
-13 34 3 25 8 -5 8 -2 -2 9 -7 10 -9 17 -3 17 6 0 9 8 7 18 -1 9 -8 16 -14 14
-9 -2 -9 3 0 19 8 15 8 19 0 15 -6 -4 -11 0 -11 8 0 10 -6 13 -17 9 -12 -5
-14 -3 -8 7 6 10 4 12 -7 7 -9 -3 -20 -1 -26 5 -6 6 -12 6 -16 -1 -4 -7 -15
-7 -31 -1 -15 6 -27 6 -30 0 -4 -6 -11 -10 -16 -10 -6 0 -8 3 -6 8 3 4 -6 7
-19 7 -13 0 -24 -4 -24 -8 0 -4 -10 -3 -21 4 -17 9 -23 8 -30 -2 -5 -9 -8 -4
-6 16 1 19 -2 29 -10 28 -8 -2 -10 4 -6 14 5 12 2 15 -10 10 -11 -4 -14 -2
-10 9 3 7 0 14 -7 14 -6 0 -8 5 -4 13 6 9 5 9 -8 0 -17 -15 -29 -7 -21 13 3 9
-2 14 -17 14 -15 0 -20 4 -17 15 4 8 1 17 -5 21 -7 4 -8 3 -4 -4 4 -7 2 -12
-3 -12 -6 0 -11 7 -11 16 0 14 -2 15 -17 3 -14 -12 -16 -12 -8 0 6 11 4 13 -9
8 -9 -4 -15 -3 -12 2 3 5 -1 12 -10 15 -9 3 -12 11 -8 18 5 9 2 8 -9 -1 -10
-8 -20 -11 -24 -7 -3 3 -1 6 6 6 7 0 9 5 6 10 -4 7 -12 7 -25 0 -13 -7 -21 -7
-25 0 -4 6 -11 8 -16 4 -5 -3 -8 0 -7 7 3 12 -1 14 -34 18 -10 1 -10 3 0 9 8
6 2 9 -17 9 -27 0 -28 -2 -13 -14 15 -11 14 -12 -8 -4 -14 5 -24 14 -22 21 1
6 -3 8 -9 4 -18 -10 -60 -14 -54 -4 3 5 1 11 -5 15 -5 3 -10 0 -10 -7 0 -10
-2 -10 -9 1 -7 11 -11 10 -20 -5 -8 -15 -11 -16 -12 -4 -1 8 -1 19 0 24 1 5
-4 4 -12 -2 -8 -7 -18 -8 -22 -4 -5 4 -5 1 -1 -5 4 -7 3 -13 -3 -13 -5 0 -12
6 -15 13 -5 10 -7 10 -12 0 -3 -7 -10 -13 -15 -13 -6 0 -8 4 -5 9 7 11 -13 9
-31 -2 -9 -6 -13 -2 -14 10 0 16 -1 16 -9 -2 -5 -11 -9 -14 -9 -7 -1 6 -6 12
-12 12 -5 0 -8 -4 -5 -9 7 -11 -13 -9 -31 2 -13 8 -17 2 -14 -18 1 -5 -5 -2
-12 8 -14 17 -33 25 -23 9 3 -5 -1 -9 -9 -9 -8 0 -12 4 -9 8 7 12 -39 7 -55
-5 -11 -8 -13 -8 -8 1 8 13 -49 13 -70 0 -9 -6 -13 -2 -13 10 0 14 -2 15 -9 4
-11 -17 -61 -22 -78 -8 -9 6 -13 5 -13 -4 -1 -9 -6 -7 -17 6 -15 20 -15 19
-10 -5 6 -24 5 -24 -8 -6 -11 14 -15 16 -15 5 0 -12 -2 -12 -11 1 -8 11 -12
12 -16 3 -2 -7 -9 -13 -14 -13 -6 0 -7 5 -3 12 5 8 2 9 -9 5 -11 -4 -17 -1
-17 7 0 22 -87 40 -113 24z m46 -51 c-4 -6 0 -8 9 -4 9 3 21 0 27 -6 14 -14
14 -57 0 -57 -5 0 -7 6 -3 13 4 6 -5 1 -20 -12 l-26 -25 -23 23 c-12 13 -16
21 -10 17 9 -5 11 -2 7 8 -3 9 -11 13 -17 9 -6 -4 -7 -1 -3 6 5 7 15 10 23 7
10 -4 13 -2 10 8 -7 17 -2 23 18 23 8 0 11 -5 8 -10z m448 -41 c-9 -11 -6 -13
14 -13 14 0 28 3 31 8 3 5 -2 6 -10 3 -9 -3 -16 -2 -16 4 0 13 24 10 44 -7 9
-7 16 -9 16 -3 0 15 28 23 36 10 4 -7 3 -8 -4 -4 -7 4 -12 3 -12 -3 0 -5 12
-8 28 -5 88 15 97 15 82 5 -12 -8 -9 -10 11 -7 13 1 30 6 37 10 7 4 12 3 12
-1 0 -5 9 -9 19 -9 11 0 18 3 16 6 -2 4 2 7 10 7 8 0 12 -4 10 -8 -3 -4 2 -10
11 -13 8 -3 12 -2 9 4 -7 12 23 2 44 -14 11 -8 13 -8 7 2 -4 6 -2 12 3 12 6 0
11 -5 11 -11 0 -6 9 -9 20 -6 13 3 18 1 13 -6 -4 -7 0 -8 11 -4 9 4 15 3 12
-2 -3 -5 1 -12 10 -15 8 -3 13 -2 9 3 -3 5 2 8 11 7 8 -1 19 -8 23 -15 5 -7
11 -12 15 -11 4 1 10 0 14 -3 4 -2 2 -2 -5 -1 -7 2 -14 0 -17 -4 -2 -4 7 -9
22 -10 15 -1 29 -7 30 -12 2 -6 8 -8 13 -4 5 3 9 -3 9 -13 0 -15 2 -16 10 -3
8 13 10 12 10 -3 0 -9 6 -16 13 -15 6 2 11 -3 9 -11 -2 -8 3 -11 11 -8 8 3 14
-1 14 -9 0 -8 -3 -12 -5 -9 -3 3 -15 -3 -26 -12 -20 -17 -20 -17 -7 0 15 19 2
24 -17 5 -9 -9 -12 -9 -12 2 0 7 -3 10 -7 7 -3 -4 -12 -2 -20 5 -11 8 -12 7
-8 -5 4 -8 1 -18 -6 -23 -8 -4 -10 -3 -5 4 4 7 4 12 -1 13 -4 0 -16 2 -26 4
-9 2 -15 -1 -11 -6 3 -5 0 -9 -5 -9 -6 0 -11 4 -11 8 0 4 -11 8 -25 8 -14 0
-25 -5 -25 -10 0 -6 -4 -5 -9 2 -10 16 -22 14 -39 -7 -8 -9 -11 -10 -7 -3 3 6
3 12 -2 13 -4 0 -16 2 -26 4 -9 2 -15 -1 -11 -6 3 -5 0 -9 -5 -9 -6 0 -11 4
-11 8 0 5 -7 9 -15 9 -8 0 -15 -4 -15 -9 0 -4 -5 -8 -11 -8 -5 0 -7 5 -3 12 5
7 3 8 -7 2 -25 -16 -39 -13 -61 14 -12 15 -18 19 -15 10 4 -10 4 -18 0 -18 -3
0 -12 8 -20 18 -9 10 -12 11 -7 2 5 -12 4 -12 -6 -3 -7 6 -19 9 -28 6 -8 -4
-13 -2 -9 3 8 14 -79 10 -97 -5 -8 -7 -20 -10 -26 -6 -5 3 -10 1 -10 -5 0 -6
-5 -8 -10 -5 -6 4 -7 11 -4 17 5 7 2 8 -5 4 -7 -5 -10 -13 -8 -20 3 -7 -9 -11
-35 -11 -34 0 -37 1 -21 13 9 7 23 10 30 8 7 -3 10 3 8 15 -3 15 0 19 11 15 8
-3 12 -2 9 3 -3 5 -1 13 5 16 8 5 7 12 -2 23 -10 12 -10 14 0 8 7 -4 12 -2 12
6 0 8 -6 20 -12 27 -10 11 -10 13 0 7 15 -9 16 10 2 19 -10 6 4 35 17 35 3 0
0 -6 -6 -14z m159 8 c0 -8 -19 -13 -24 -6 -3 5 1 9 9 9 8 0 15 -2 15 -3z
m-588 -56 c-7 -7 -12 -8 -12 -2 0 14 12 26 19 19 2 -3 -1 -11 -7 -17z m338 2
c16 -30 3 -62 -23 -58 -54 7 -47 59 10 77 1 1 7 -8 13 -19z m-86 -31 c-2 -4
-51 -5 -76 0 -5 0 -8 9 -7 19 0 11 2 12 6 4 4 -10 8 -10 21 0 15 12 16 11 3
-4 -8 -11 -9 -18 -3 -18 6 0 14 5 17 10 4 6 11 8 16 5 5 -4 9 2 10 12 0 16 1
16 8 -2 5 -11 7 -23 5 -26z m-128 11 c3 0 2 6 -2 13 -6 9 -5 9 8 0 8 -7 18
-10 21 -6 4 3 7 1 7 -5 0 -7 -5 -12 -11 -12 -5 0 -7 -6 -3 -12 5 -9 2 -9 -9 1
-13 10 -20 11 -30 2 -11 -8 -16 -5 -25 14 -11 23 -10 24 14 15 14 -6 28 -10
30 -10z m-56 -20 c0 -5 -2 -10 -4 -10 -3 0 -8 5 -11 10 -3 6 -1 10 4 10 6 0
11 -4 11 -10z m-249 -28 c1 -11 4 -8 9 8 5 17 8 19 9 8 2 -28 3 -32 15 -43 6
-5 9 -9 7 -7 -2 1 -13 -6 -24 -15 -12 -11 -17 -12 -12 -4 6 10 4 12 -4 7 -7
-5 -10 -15 -7 -23 5 -12 0 -11 -25 4 -18 10 -33 26 -35 36 -1 9 2 14 8 11 7
-4 7 2 3 17 -7 21 -6 22 8 10 14 -11 18 -11 23 3 7 19 24 11 25 -12z m398 -61
c23 -13 20 -52 -5 -62 -18 -6 -44 4 -55 22 -4 7 30 49 38 49 2 0 12 -4 22 -9z
m-176 -26 c-4 -11 -1 -13 11 -9 9 3 13 11 9 17 -3 5 -1 7 5 3 6 -3 14 -2 17 4
4 7 11 8 18 1 7 -5 16 -11 22 -13 5 -1 11 -12 12 -23 3 -16 1 -17 -7 -5 -5 8
-10 11 -10 6 0 -5 -10 -1 -22 10 -18 16 -21 17 -15 2 4 -12 2 -15 -8 -12 -8 3
-20 2 -27 -2 -24 -15 -34 -12 -34 11 0 16 4 21 15 17 10 -4 12 -1 6 8 -5 8 -4
11 3 6 6 -4 9 -13 5 -21z m322 11 c19 3 19 2 3 -10 -10 -7 -18 -19 -18 -27 0
-12 -2 -12 -9 -1 -4 8 -12 13 -17 13 -5 -1 -9 4 -8 9 3 30 4 32 17 23 6 -6 21
-9 32 -7z m237 -10 c7 4 8 2 4 -5 -9 -13 -26 -5 -25 12 0 9 2 8 6 -1 2 -6 10
-9 15 -6z m308 4 c0 -5 -5 -10 -11 -10 -5 0 -7 5 -4 10 3 6 8 10 11 10 2 0 4
-4 4 -10z m-400 -10 c0 -5 -2 -10 -4 -10 -3 0 -8 5 -11 10 -3 6 -1 10 4 10 6
0 11 -4 11 -10z m-50 -15 c0 -2 -6 -5 -13 -8 -8 -3 -14 1 -14 8 0 7 6 11 14 8
7 -3 13 -6 13 -8z m-536 -29 c-3 -6 2 -2 12 9 14 17 16 17 11 3 -4 -12 -1 -18
8 -18 20 0 26 -13 13 -30 -8 -12 -9 -12 -4 3 3 11 2 16 -4 12 -6 -3 -10 -13
-10 -21 0 -8 -4 -12 -10 -9 -5 3 -10 -1 -10 -9 0 -15 -15 -10 -57 17 -14 9 4
60 18 51 5 -3 9 -1 9 5 0 6 7 8 15 5 8 -4 12 -11 9 -18z m398 10 c7 4 8 2 4
-5 -9 -13 -26 -5 -25 12 0 9 2 8 6 -1 2 -6 10 -9 15 -6z m92 -7 c-3 -5 -10 -7
-15 -3 -5 3 -7 10 -3 15 3 5 10 7 15 3 5 -3 7 -10 3 -15z m280 5 c6 2 7 1 3
-2 -4 -2 0 -10 9 -16 13 -10 14 -15 4 -21 -8 -5 -11 -4 -6 3 3 6 -2 13 -13 17
-11 3 -22 13 -26 23 -5 13 -3 14 6 5 6 -6 17 -10 23 -9z m-309 -13 c3 -5 2
-12 -3 -15 -5 -3 -9 1 -9 9 0 17 3 19 12 6z m220 -14 c11 -3 21 -6 23 -6 1 -1
4 0 7 2 2 1 12 -8 20 -20 9 -13 23 -23 31 -23 8 0 13 -4 10 -9 -3 -4 3 -16 14
-26 10 -9 16 -23 13 -31 -3 -8 0 -14 5 -14 6 0 9 -9 7 -20 -2 -11 0 -20 4 -20
6 0 7 -40 1 -47 -2 -2 -3 -11 -4 -21 0 -11 -7 -26 -15 -35 -7 -10 -10 -17 -5
-17 4 0 -7 -16 -26 -35 -19 -19 -40 -35 -47 -35 -7 0 -13 -4 -13 -10 0 -5 -3
-9 -7 -8 -5 0 -15 -1 -23 -5 -32 -12 -70 -14 -71 -3 0 6 -3 5 -6 -2 -4 -10
-10 -10 -29 3 -13 8 -24 13 -24 9 0 -4 -7 -1 -15 6 -8 7 -15 10 -15 7 0 -10
-67 59 -75 79 -20 46 -25 114 -11 133 8 11 8 13 -1 7 -18 -10 -16 -1 3 18 10
11 11 16 3 16 -6 0 2 14 19 30 18 17 28 30 24 30 -4 0 11 11 32 25 22 13 43
22 48 19 4 -3 8 -1 8 4 0 9 77 8 115 -1z m241 -26 c-3 -5 26 -7 64 -6 48 2 68
0 63 -7 -4 -7 -1 -8 8 -2 21 13 240 13 232 0 -5 -7 -2 -7 8 0 8 6 39 10 69 10
30 -1 58 2 61 6 3 5 14 -1 25 -13 10 -13 14 -19 7 -16 -7 5 -9 0 -6 -14 4 -16
8 -17 14 -7 12 19 11 0 -2 -23 -7 -15 -7 -24 2 -35 9 -11 9 -14 0 -14 -7 0 -9
-4 -6 -10 3 -5 1 -10 -5 -10 -7 0 -5 -7 4 -16 13 -12 14 -20 5 -36 -8 -16 -8
-23 2 -29 11 -7 9 -9 -6 -9 -12 0 -16 -3 -9 -8 12 -8 15 -74 2 -66 -4 3 -8 -1
-8 -9 0 -11 -10 -12 -45 -7 -25 4 -45 3 -45 -2 0 -5 -5 -6 -11 -3 -16 10 -109
11 -109 1 0 -5 -7 -3 -15 4 -8 7 -15 8 -15 3 0 -5 -16 -7 -35 -5 -22 3 -33 8
-29 16 3 6 -2 2 -10 -8 -12 -15 -16 -16 -17 -5 0 8 -3 9 -5 3 -3 -6 -16 -9
-29 -6 -14 2 -22 9 -19 16 3 6 -2 2 -10 -8 -12 -15 -16 -16 -17 -5 0 10 -2 11
-6 1 -4 -10 -8 -10 -19 -1 -11 9 -14 9 -14 0 0 -9 -5 -9 -20 -1 -15 8 -20 8
-20 -2 0 -9 -3 -9 -10 2 -9 13 -10 13 -10 0 0 -8 -6 -4 -13 10 -8 14 -9 28 -4
31 5 3 8 9 8 13 -3 20 0 26 12 20 9 -6 9 -5 0 7 -10 12 -10 18 0 29 10 10 9
11 -3 5 -13 -8 -13 -7 -1 8 11 14 11 17 0 17 -10 0 -10 3 -1 12 9 9 9 15 -1
27 -9 12 -9 13 1 7 6 -4 12 -2 12 3 0 6 -4 11 -8 11 -4 0 -9 8 -10 18 -4 41
-9 54 -23 63 -11 7 -10 9 6 9 15 0 17 2 6 9 -12 8 -8 31 5 31 3 0 3 -4 0 -9z
m-521 -48 c-23 -35 -39 -143 -21 -143 4 0 2 -8 -5 -17 -12 -14 -12 -16 0 -8
11 6 13 4 8 -8 -3 -9 1 -23 10 -32 8 -9 13 -19 9 -22 -3 -3 11 -22 31 -42 20
-19 31 -37 24 -39 -6 -2 -8 -9 -5 -14 5 -7 2 -8 -7 -2 -19 12 -42 11 -51 -1
-5 -6 -8 -5 -8 3 0 8 -5 10 -12 5 -18 -10 -50 -15 -45 -6 3 5 -10 8 -28 8 -18
0 -31 -4 -28 -8 3 -5 -4 -4 -16 2 -16 9 -21 9 -21 -1 0 -10 -2 -10 -9 1 -6 9
-10 10 -16 2 -5 -9 -11 -9 -23 1 -13 11 -14 11 -8 0 6 -10 0 -9 -23 2 -17 9
-33 16 -36 16 -3 0 -5 3 -5 8 0 4 40 7 90 7 49 0 90 4 90 8 0 5 6 5 13 0 19
-12 60 -9 78 5 14 12 14 17 1 47 -18 39 -32 44 -107 42 -30 -2 -55 1 -55 5 0
3 -13 3 -30 -2 -18 -5 -32 -5 -35 1 -4 5 -13 5 -24 0 -10 -6 -23 -6 -31 -1 -8
5 -21 5 -30 0 -9 -5 -23 -4 -32 1 -10 6 -19 6 -22 0 -8 -12 -74 6 -92 24 -11
11 -11 15 0 24 10 8 16 9 21 1 3 -5 11 -10 16 -10 6 0 7 5 3 11 -4 8 -1 8 12
2 11 -5 92 -9 181 -8 125 1 165 4 179 16 16 12 17 12 9 -1 -5 -9 -5 -12 1 -7
11 11 13 77 1 77 -4 0 -6 4 -3 8 2 4 -12 9 -32 9 -42 2 -40 2 -186 2 -73 0
-112 3 -120 12 -8 9 -8 10 1 5 6 -3 17 2 23 11 11 17 11 17 6 0 -4 -13 -2 -16
7 -10 6 4 15 8 19 8 3 0 10 4 15 9 5 5 2 6 -6 1 -10 -6 -12 -4 -7 4 6 9 11 9
21 1 10 -8 15 -8 21 1 5 8 3 10 -7 4 -8 -5 -11 -4 -6 0 10 12 57 13 64 1 3 -5
2 -6 -4 -3 -6 4 -19 -1 -29 -9 -10 -9 -13 -13 -6 -9 26 13 64 16 56 4 -4 -8
-3 -9 5 -5 6 4 9 12 6 17 -7 10 8 12 18 2 11 -10 57 -10 57 1 0 5 9 1 20 -9
18 -16 20 -16 26 -1 3 9 10 16 16 16 5 0 6 -5 2 -11 -5 -8 -1 -8 14 0 26 14
35 14 27 0 -4 -6 2 -5 13 2 11 7 18 19 15 28 -4 14 -4 14 6 1 7 -11 6 -21 -4
-37z m-668 -70 c17 -15 16 -19 -4 -43 -20 -23 -65 -26 -83 -6 -18 23 -8 60 20
73 25 11 33 9 67 -24z m184 -26 c-10 -9 -11 -8 -5 6 3 10 9 15 12 12 3 -3 0
-11 -7 -18z m73 15 c3 -5 -1 -9 -9 -9 -8 0 -12 4 -9 9 3 4 7 8 9 8 2 0 6 -4 9
-8z m120 0 c3 -5 -1 -9 -9 -9 -8 0 -12 4 -9 9 3 4 7 8 9 8 2 0 6 -4 9 -8z m60
0 c3 -5 -1 -9 -9 -9 -8 0 -12 4 -9 9 3 4 7 8 9 8 2 0 6 -4 9 -8z m-246 -131
c7 -9 18 -15 23 -13 31 8 -10 -32 -50 -49 -33 -13 -72 12 -66 43 9 47 62 58
93 19z m86 -19 c3 -5 -1 -9 -9 -9 -8 0 -12 4 -9 9 3 4 7 8 9 8 2 0 6 -4 9 -8z
m120 0 c3 -5 -1 -9 -9 -9 -8 0 -12 4 -9 9 3 4 7 8 9 8 2 0 6 -4 9 -8z m777
-45 c-10 -9 -11 -8 -5 6 3 10 9 15 12 12 3 -3 0 -11 -7 -18z m-116 -34 c-2
-10 -4 -22 -4 -27 -1 -4 -7 -6 -15 -3 -7 3 -19 0 -25 -6 -6 -6 -16 -12 -23
-13 -31 -5 -43 -10 -50 -19 -5 -6 -8 -4 -8 5 0 15 47 43 60 35 4 -2 18 7 30
20 28 29 40 32 35 8z m-721 -5 c-5 -8 -2 -9 10 -5 10 4 15 3 11 -3 -6 -9 8
-14 28 -11 4 0 7 -5 7 -13 0 -10 8 -13 26 -10 18 3 23 1 18 -7 -5 -8 -3 -9 7
-3 21 13 49 15 49 4 0 -6 5 -10 11 -10 5 0 7 5 4 10 -3 6 1 10 9 10 9 0 16 -6
16 -12 0 -9 3 -9 8 -3 9 14 54 13 59 -1 2 -7 -9 -12 -29 -12 -18 0 -46 0 -63
-1 -16 -1 -43 0 -60 1 -16 2 -36 -1 -42 -6 -7 -4 -13 -6 -13 -2 0 3 -8 -2 -18
-11 -11 -10 -17 -21 -15 -26 6 -11 -21 -4 -29 8 -5 6 -8 5 -8 -3 0 -8 -9 -4
-23 10 -16 16 -22 31 -19 50 2 15 8 25 13 22 5 -3 9 2 9 11 0 9 4 14 9 10 5
-3 12 -1 16 5 3 5 8 10 11 10 3 0 2 -5 -2 -12z m416 -8 c0 -5 9 -10 19 -10 11
0 27 -7 35 -16 12 -12 16 -12 17 -2 0 9 2 9 5 1 3 -7 11 -10 19 -7 7 3 16 0
20 -6 5 -8 10 -8 20 0 15 13 39 4 30 -10 -3 -5 -27 -6 -53 -3 -26 4 -55 7 -64
7 -9 0 -14 5 -11 10 3 5 1 6 -5 2 -7 -4 -12 -11 -12 -17 0 -5 -9 -18 -20 -29
-16 -16 -20 -17 -20 -4 0 8 -4 12 -10 9 -15 -10 -12 21 4 34 8 7 12 21 9 31
-3 11 0 20 6 20 6 0 11 -4 11 -10z m912 -59 c-3 -9 -1 -12 6 -7 17 10 15 2 -7
-23 -12 -14 -18 -32 -15 -49 10 -69 10 -152 0 -152 -6 0 -4 -5 4 -10 11 -7 12
-10 2 -10 -9 0 -11 -7 -7 -20 4 -12 2 -20 -5 -20 -7 0 -9 -8 -5 -20 4 -11 2
-20 -4 -20 -6 0 -11 -6 -12 -12 0 -7 -14 -24 -32 -38 -17 -14 -27 -18 -22 -10
7 12 6 13 -6 4 -8 -6 -22 -10 -31 -9 -10 2 -18 -1 -18 -7 0 -6 -9 -8 -20 -5
-11 3 -20 2 -20 -2 0 -4 -17 -6 -37 -6 -22 1 -51 -6 -68 -16 -16 -11 -25 -19
-20 -19 6 0 3 -6 -5 -13 -22 -18 -42 -56 -35 -67 4 -6 0 -13 -8 -15 -7 -3 -13
-16 -12 -28 3 -30 -5 -48 -17 -41 -6 4 -5 -3 1 -15 7 -11 8 -21 3 -21 -5 0 -7
-12 -4 -26 3 -19 1 -25 -7 -20 -6 4 -11 3 -11 -2 0 -14 -58 -20 -70 -8 -7 7
-10 7 -10 -1 0 -7 -11 -8 -35 -3 -19 4 -33 5 -30 1 5 -9 -69 -6 -84 3 -6 4
-11 3 -11 -2 0 -6 -14 -7 -35 -2 -19 4 -33 5 -30 1 5 -9 -69 -6 -84 3 -6 4
-11 3 -11 -3 0 -6 -11 -6 -30 -1 -19 5 -30 5 -30 -1 0 -6 -8 -5 -20 1 -12 6
-20 7 -20 1 0 -11 -40 -2 -41 10 -5 49 0 71 19 87 12 11 19 22 15 26 -3 3 1 6
9 6 9 0 18 5 20 12 4 11 18 15 66 20 12 1 22 8 22 15 0 7 6 12 13 11 6 -2 11
3 9 10 -1 6 3 12 10 12 6 0 8 3 5 7 -4 3 -2 12 5 20 8 10 8 17 0 25 -6 6 -8
17 -5 24 3 8 0 14 -7 14 -6 0 -9 4 -6 9 3 5 -2 15 -11 22 -14 12 -16 12 -9 -1
4 -9 2 -8 -7 2 -8 10 -17 15 -20 11 -4 -3 -7 -2 -7 3 0 5 -13 10 -30 10 -16 1
-30 -2 -30 -7 0 -5 -5 -9 -11 -9 -15 0 -39 -26 -32 -34 4 -3 1 -6 -6 -6 -7 0
-11 6 -8 14 3 8 -4 22 -15 33 -12 10 -18 12 -14 6 5 -9 0 -13 -13 -13 -10 0
-21 -5 -23 -10 -2 -6 -14 -12 -26 -15 -20 -3 -22 -2 -11 11 6 8 14 12 16 10 6
-6 53 44 53 56 0 5 4 7 9 4 5 -3 12 1 15 10 3 8 10 12 16 9 6 -4 7 1 3 11 -4
12 -3 15 5 10 7 -4 12 -1 12 9 0 9 5 13 10 10 6 -3 10 -1 10 6 0 7 3 9 7 6 3
-4 13 -1 21 6 13 9 14 9 8 0 -4 -7 -3 -13 3 -13 5 0 13 5 16 10 4 6 12 7 18 3
7 -4 26 -8 42 -8 17 0 42 -9 58 -19 26 -18 55 -22 86 -15 17 5 58 40 61 54 1
6 6 20 11 32 5 13 4 25 -2 28 -5 4 -7 11 -4 16 4 5 -1 12 -9 15 -9 3 -14 10
-11 14 3 4 -3 14 -12 21 -14 12 -16 12 -9 -1 6 -13 6 -13 -6 0 -7 9 -20 15
-28 15 -8 0 -18 4 -22 10 -5 6 -8 5 -8 -3 0 -7 -5 -10 -10 -7 -6 4 -20 -4 -31
-17 -11 -13 -17 -16 -13 -8 7 13 5 13 -9 1 -9 -7 -14 -17 -12 -22 5 -7 -35 -4
-62 6 -7 2 -13 -1 -13 -7 0 -9 -3 -9 -12 0 -8 8 -17 8 -31 1 -14 -8 -18 -8
-13 0 4 6 2 11 -4 11 -12 0 -3 69 11 85 12 12 62 13 71 0 5 -6 8 -6 8 0 0 6
19 9 42 8 24 0 49 3 56 9 8 8 12 7 12 -3 1 -9 5 -8 15 5 8 11 15 17 15 13 0
-3 13 -1 29 6 20 8 118 12 333 12 259 0 305 -2 300 -14z m-961 -39 c14 -16 14
-22 2 -45 -12 -23 -16 -25 -38 -15 -51 23 -43 64 15 77 3 0 13 -7 21 -17z
m-131 -37 c0 -12 -33 -55 -42 -55 -5 0 -6 5 -2 12 4 7 3 8 -5 4 -6 -4 -9 -11
-6 -16 3 -5 -5 -20 -18 -33 -18 -20 -26 -23 -41 -15 -14 8 -17 8 -11 -1 9 -15
-26 -11 -37 4 -5 6 -8 5 -8 -4 0 -11 -3 -11 -15 -1 -8 7 -15 8 -15 3 0 -5 -22
-9 -50 -9 -27 0 -50 4 -50 9 0 6 -5 5 -12 0 -7 -5 -28 -9 -45 -8 -20 0 -33 -4
-33 -11 0 -11 -20 -24 -48 -30 -7 -1 -25 4 -40 12 -15 8 -23 14 -19 14 4 0 3
10 -4 21 -9 17 -8 20 2 14 9 -6 11 -3 6 9 -4 10 -3 15 3 11 5 -3 14 3 19 14
12 22 33 22 59 0 42 -34 55 -43 50 -33 -7 11 48 11 59 0 4 -3 13 0 21 7 10 8
13 8 9 1 -4 -7 0 -14 8 -18 8 -3 14 -2 14 2 -3 17 2 23 14 15 18 -11 36 -12
42 -2 3 4 16 5 28 0 13 -5 36 -3 57 5 19 7 32 13 28 13 -12 1 30 41 43 41 5 0
8 4 5 9 -4 5 0 12 6 14 18 7 28 8 28 2z m447 -81 c28 -27 7 -64 -36 -64 -13 0
-21 3 -18 7 4 3 2 12 -4 19 -7 9 -7 18 2 32 14 22 38 24 56 6z m-357 -33 c-5
-10 -17 -21 -25 -25 -9 -3 -13 -11 -10 -16 4 -6 3 -10 -2 -9 -19 3 -34 -2 -29
-9 8 -14 -61 -75 -74 -67 -8 5 -11 3 -8 -6 3 -8 -7 -25 -21 -38 -14 -14 -27
-32 -28 -40 -1 -9 -3 -26 -5 -38 -4 -40 -72 -53 -99 -20 -19 24 -16 42 12 77
12 14 18 19 14 13 -4 -10 3 -11 27 -6 18 3 35 10 36 15 2 4 7 6 11 4 4 -3 16
9 26 25 13 19 26 28 37 25 10 -2 21 1 25 6 3 6 1 8 -5 4 -6 -3 -13 -2 -16 3
-7 10 22 24 34 16 5 -3 12 0 16 6 4 8 3 9 -4 5 -7 -4 -12 0 -12 10 0 10 3 14
7 11 3 -4 15 7 25 24 11 17 22 29 25 25 3 -3 13 3 20 14 18 25 37 17 23 -9z
m-30 -226 c-14 -8 -22 -14 -17 -15 4 0 -7 -14 -25 -31 -18 -17 -28 -28 -23
-26 6 3 10 -31 10 -94 0 -68 -4 -100 -12 -103 -7 -3 -15 -1 -18 4 -4 6 -2 10
4 10 6 0 7 8 4 18 -9 22 -33 47 -33 33 0 -6 -6 -10 -12 -8 -7 1 -12 -4 -10
-12 3 -12 1 -12 -13 -1 -14 12 -16 12 -14 -1 1 -7 -1 -22 -6 -32 -5 -13 -11
-15 -20 -7 -10 8 -15 8 -21 -1 -4 -8 -3 -9 4 -5 7 4 12 1 12 -9 0 -9 -4 -14
-9 -10 -5 3 -12 -4 -16 -15 -4 -11 -10 -18 -14 -15 -11 6 -33 -38 -30 -61 4
-24 -18 -64 -34 -64 -7 0 -6 4 3 10 9 6 10 10 3 10 -6 0 -14 -4 -17 -9 -4 -5
-14 -8 -24 -6 -9 2 -20 4 -24 4 -5 1 -8 10 -8 21 0 11 -6 20 -12 21 -10 0 -10
2 0 6 6 2 10 9 6 14 -3 5 0 9 6 9 6 0 9 4 5 9 -8 14 8 21 54 23 23 1 39 3 37
5 -2 2 13 22 34 45 25 26 43 37 51 32 9 -5 10 -2 6 10 -5 12 3 22 26 36 17 11
29 20 25 20 -5 0 0 8 10 18 9 11 21 17 25 14 5 -2 7 6 5 19 -2 13 4 30 12 37
13 10 13 11 -3 6 -12 -4 -16 -2 -13 7 2 8 7 27 10 42 4 15 11 25 16 22 6 -4 7
-11 4 -17 -4 -7 -2 -8 5 -4 6 4 9 11 6 16 -8 13 19 35 46 37 l24 2 -25 -14z
m213 -34 c5 -22 -19 -48 -43 -47 -8 1 -20 12 -27 26 -11 22 -10 27 9 42 26 19
53 10 61 -21z m-272 -255 c1 -6 1 -16 0 -23 -1 -6 9 -19 21 -27 15 -11 17 -16
8 -16 -10 0 -11 -3 -4 -8 15 -10 25 -42 13 -42 -6 0 -8 -4 -4 -9 7 -13 -26
-30 -44 -23 -9 3 -11 0 -6 -9 5 -7 -5 -3 -21 8 -20 14 -30 30 -30 47 0 14 4
26 9 26 4 0 6 4 2 9 -3 6 3 15 14 20 13 8 18 18 15 34 -2 16 1 24 11 24 8 0
16 -5 16 -11z"/>
<path d="M823 2085 c0 -8 4 -12 9 -9 5 3 6 10 3 15 -9 13 -12 11 -12 -6z"/>
<path d="M1495 1890 c3 -5 8 -10 11 -10 2 0 4 5 4 10 0 6 -5 10 -11 10 -5 0
-7 -4 -4 -10z"/>
<path d="M580 1916 c0 -3 9 -10 20 -16 11 -6 20 -8 20 -6 0 3 -9 10 -20 16
-11 6 -20 8 -20 6z"/>
<path d="M910 1877 c0 -2 6 -10 14 -16 11 -9 16 -9 22 1 4 7 4 10 -1 6 -4 -4
-14 -3 -22 3 -7 6 -13 9 -13 6z"/>
<path d="M1570 2120 c0 -5 5 -10 11 -10 5 0 7 5 4 10 -3 6 -8 10 -11 10 -2 0
-4 -4 -4 -10z"/>
<path d="M1735 2070 c3 -5 8 -10 11 -10 2 0 4 5 4 10 0 6 -5 10 -11 10 -5 0
-7 -4 -4 -10z"/>
<path d="M960 610 c-9 -6 -10 -10 -3 -10 6 0 15 5 18 10 8 12 4 12 -15 0z"/>
</g>
</svg>
